<svg width="104" height="69" viewBox="0 0 104 69" fill="none" xmlns="http://www.w3.org/2000/svg">
<rect width="104" height="69" fill="white"/>
<g filter="url(#filter0_d_40_45)">
<path d="M45.2226 19.6942C67.4369 3.09295 11.2517 52.1292 15.7828 57.4368C20.3139 62.7445 83.8455 22.3138 61.6312 38.915C39.4169 55.5162 17.7355 64.6714 13.2044 59.3637C8.6733 54.056 23.0084 36.2954 45.2226 19.6942Z" fill="black"/>
</g>
<rect width="2.96929" height="12.2101" transform="matrix(0.702928 0.711261 -0.754963 0.655768 77.8809 21.1899)" fill="#272525"/>
<path d="M65.5946 33.7507L68.2834 29.3531L70.5341 31.6854L65.5946 33.7507Z" fill="#EF7B29"/>
<path d="M79.8804 23.2087L70.3236 30.8843" stroke="white" stroke-width="0.3"/>
<path d="M79.6403 22.5789L72.9639 25.7379L69.4899 30.0771" stroke="white" stroke-width="0.3"/>
<g filter="url(#filter1_g_40_45)">
<path d="M47.4997 39L49.2702 43.2016H54.9997L50.3645 45.7984L52.135 50L47.4997 47.4033L42.8645 50L44.635 45.7984L39.9997 43.2016H45.7292L47.4997 39Z" fill="#EF7B29"/>
</g>
<g filter="url(#filter2_g_40_45)">
<path d="M35.4997 45L37.2702 49.5836H42.9997L38.3645 52.4164L40.135 57L35.4997 54.1672L30.8645 57L32.635 52.4164L27.9997 49.5836H33.7292L35.4997 45Z" fill="#EF7B29"/>
</g>
<g filter="url(#filter3_g_40_45)">
<path d="M20.4997 51L22.2702 55.2016H27.9997L23.3645 57.7984L25.135 62L20.4997 59.4033L15.8645 62L17.635 57.7984L12.9997 55.2016H18.7292L20.4997 51Z" fill="#EF7B29"/>
</g>
<g filter="url(#filter4_g_40_45)">
<path d="M58.4997 32L60.2702 36.5836H65.9997L61.3645 39.4164L63.135 44L58.4997 41.1672L53.8645 44L55.635 39.4164L50.9997 36.5836H56.7292L58.4997 32Z" fill="#EF7B29"/>
</g>
<path d="M67.2231 32.3043C67.2401 32.2987 67.252 32.2739 67.2723 32.2754C67.2725 32.2754 67.2728 32.2754 67.2731 32.2755C67.2814 32.2761 67.2906 32.2783 67.3018 32.281C67.3032 32.2813 67.3047 32.2817 67.3061 32.2821C67.3194 32.2852 67.3355 32.2889 67.3563 32.2915C67.4261 32.3003 67.4557 32.2564 67.465 32.2428C67.4777 32.2238 67.4947 32.2113 67.5163 32.199C67.5259 32.1935 67.5365 32.1881 67.548 32.1822C67.5514 32.1804 67.5549 32.1787 67.5585 32.1768C67.5614 32.1753 67.5697 32.1859 67.5771 32.2004C67.5844 32.215 67.5881 32.228 67.5852 32.2295C67.5817 32.2313 67.5782 32.2331 67.5749 32.2348C67.5749 32.2348 67.5749 32.2348 67.5749 32.2348C67.5631 32.2409 67.5524 32.2464 67.5427 32.2519C67.5215 32.264 67.505 32.2762 67.4926 32.2946C67.4832 32.3086 67.4528 32.3535 67.3813 32.3444C67.3603 32.3418 67.344 32.3382 67.3307 32.335C67.3292 32.3346 67.3278 32.3343 67.3264 32.3339C67.3264 32.3339 67.3264 32.3339 67.3263 32.3339C67.3151 32.3312 67.3062 32.329 67.2983 32.3285C67.2982 32.3285 67.298 32.3285 67.2978 32.3285C67.2774 32.327 67.2659 32.3518 67.2494 32.3571C67.2463 32.3582 67.2379 32.3471 67.2306 32.3325C67.2233 32.3179 67.22 32.3053 67.2231 32.3043ZM68.2003 31.5987C68.2058 31.5718 68.2271 31.5638 68.2493 31.5635C68.2716 31.5632 68.2957 31.5706 68.3082 31.5764C68.3204 31.582 68.3302 31.5808 68.3411 31.5777C68.3436 31.577 68.3461 31.5762 68.3487 31.5754C68.3574 31.5726 68.3671 31.5695 68.3791 31.5688C68.4084 31.5669 68.4288 31.5613 68.444 31.5548C68.4515 31.5516 68.4577 31.5482 68.463 31.545C68.4664 31.543 68.4694 31.541 68.4722 31.5391C68.4722 31.5391 68.4722 31.5391 68.4722 31.5391C68.4829 31.532 68.491 31.5268 68.5018 31.5289C68.5211 31.5326 68.5372 31.5364 68.5602 31.5481C68.5919 31.5642 68.6173 31.5477 68.6261 31.5213C68.6265 31.5199 68.627 31.5184 68.6275 31.5169C68.6338 31.4977 68.6416 31.4741 68.6591 31.4506C68.6738 31.431 68.6911 31.4233 68.7076 31.4185C68.7123 31.4172 68.7169 31.4161 68.7213 31.415C68.7324 31.4123 68.7423 31.4099 68.7501 31.4045C68.7596 31.3979 68.7686 31.3924 68.7771 31.3879C68.8119 31.3693 68.8385 31.3665 68.8595 31.3705C68.8795 31.3743 68.8948 31.3844 68.9058 31.3918C68.9091 31.394 68.912 31.396 68.9146 31.3974C68.9375 31.4104 68.9539 31.4131 68.9736 31.4164C68.978 31.4171 68.9826 31.4179 68.9874 31.4188C69.0035 31.4218 69.0115 31.4159 69.0164 31.4087C69.0186 31.4056 69.0202 31.4022 69.0217 31.3991C69.0217 31.399 69.0218 31.3989 69.0218 31.3989C69.022 31.3984 69.0222 31.398 69.0224 31.3976C69.0226 31.3972 69.0227 31.3969 69.0229 31.3965C69.0228 31.3962 69.0229 31.396 69.0228 31.3958C69.0228 31.3957 69.0228 31.3956 69.0228 31.3955C69.0228 31.3955 69.0228 31.3954 69.0228 31.3954C69.0228 31.3942 69.023 31.3936 69.0231 31.3934C69.0231 31.3932 69.0232 31.3931 69.0233 31.393C69.0235 31.3926 69.0239 31.3922 69.0242 31.392C69.0249 31.3914 69.0261 31.3905 69.0281 31.3892C69.0296 31.3875 69.0307 31.3853 69.0321 31.3825C69.0322 31.3824 69.0323 31.3822 69.0324 31.382C69.0337 31.3793 69.0353 31.3762 69.0376 31.3728C69.0397 31.3697 69.0475 31.3788 69.0552 31.3931C69.0628 31.4074 69.0673 31.4215 69.0653 31.4246C69.0631 31.4278 69.0616 31.4307 69.0603 31.4334C69.0602 31.4336 69.0601 31.4338 69.06 31.434C69.0586 31.4368 69.0573 31.4394 69.0554 31.4415C69.0548 31.4422 69.0541 31.4428 69.0535 31.4433C69.0525 31.4447 69.0515 31.4466 69.0504 31.4489C69.0502 31.4493 69.0499 31.4498 69.0497 31.4503C69.0482 31.4535 69.0464 31.4572 69.0441 31.4606C69.0385 31.4686 69.0297 31.4749 69.0121 31.4717C69.0075 31.4708 69.0031 31.4701 68.9988 31.4694C68.979 31.4661 68.9614 31.4632 68.9371 31.4495C68.9338 31.4476 68.9303 31.4453 68.9267 31.4429C68.9158 31.4356 68.9027 31.4269 68.8842 31.4234C68.8642 31.4196 68.8381 31.4222 68.8035 31.4407C68.7952 31.4452 68.7864 31.4506 68.7771 31.457C68.7689 31.4627 68.7582 31.4653 68.7469 31.468C68.7426 31.4691 68.7382 31.4702 68.7338 31.4715C68.7177 31.4762 68.7008 31.4837 68.6867 31.5026C68.6695 31.5255 68.662 31.5485 68.6557 31.5676C68.6555 31.5682 68.6553 31.5689 68.6551 31.5696C68.6548 31.5704 68.6545 31.5712 68.6543 31.572C68.6449 31.6001 68.6181 31.6182 68.5831 31.6004C68.5611 31.5892 68.5457 31.5855 68.5265 31.5818C68.5171 31.58 68.5102 31.5845 68.4997 31.5914C68.4968 31.5933 68.4935 31.5954 68.4898 31.5976C68.4844 31.6009 68.478 31.6044 68.4704 31.6077C68.455 31.6142 68.4344 31.6199 68.4047 31.6218C68.3932 31.6225 68.3839 31.6255 68.3752 31.6282C68.3726 31.6291 68.3699 31.6299 68.3673 31.6307C68.3564 31.6338 68.3456 31.6354 68.3315 31.6289C68.3199 31.6235 68.2965 31.6162 68.2748 31.6165C68.2529 31.6168 68.2336 31.6249 68.2287 31.6486C68.2282 31.6511 68.2277 31.6535 68.2272 31.656C68.2227 31.6772 68.2181 31.6988 68.2211 31.7294C68.2392 31.8208 68.2208 31.8615 68.1906 31.8813C68.1601 31.9014 68.1176 31.9002 68.0884 31.9087C68.0877 31.9089 68.0869 31.9091 68.0862 31.9093C68.0193 31.9287 67.9756 31.9524 67.9606 31.9605C67.9599 31.9609 67.9593 31.9612 67.9587 31.9615C67.9582 31.9618 67.9578 31.9621 67.9574 31.9623C67.9513 31.9655 67.9467 31.9701 67.942 31.9749C67.9417 31.9752 67.9415 31.9755 67.9412 31.9757C67.9362 31.9808 67.9309 31.986 67.9233 31.9896C67.895 32.0029 67.8735 32.0167 67.8551 32.0291C67.8533 32.0303 67.8515 32.0315 67.8497 32.0327C67.8481 32.0337 67.8466 32.0347 67.8451 32.0358C67.8451 32.0358 67.8451 32.0358 67.8451 32.0358C67.8309 32.0454 67.8184 32.054 67.8057 32.0604C67.7824 32.0721 67.7683 32.0833 67.7579 32.093C67.7546 32.096 67.7517 32.0989 67.7489 32.1017C67.7429 32.1077 67.7376 32.113 67.7315 32.1169C67.72 32.1244 67.7105 32.1337 67.7012 32.1427C67.7004 32.1435 67.6995 32.1443 67.6987 32.1451C67.6886 32.1549 67.6785 32.1644 67.666 32.1708C67.6631 32.1723 67.6547 32.1616 67.6473 32.1471C67.64 32.1325 67.6364 32.1195 67.6393 32.118C67.6515 32.1118 67.6614 32.1026 67.6715 32.0928C67.6723 32.092 67.6731 32.0912 67.674 32.0904C67.6832 32.0813 67.6929 32.072 67.7046 32.0643C67.7105 32.0605 67.7155 32.0556 67.7214 32.0497C67.7242 32.0469 67.7272 32.0439 67.7307 32.0406C67.7413 32.0308 67.7555 32.0194 67.779 32.0076C67.7916 32.0013 67.804 31.9929 67.8181 31.9832C67.8198 31.9821 67.8215 31.9809 67.8232 31.9798C67.8248 31.9787 67.8265 31.9776 67.8281 31.9764C67.8466 31.964 67.8683 31.9502 67.8967 31.9368C67.9038 31.9334 67.9089 31.9285 67.9139 31.9234C67.9142 31.9232 67.9145 31.9229 67.9148 31.9226C67.9195 31.9178 67.9242 31.9129 67.9307 31.9095C67.9315 31.9091 67.9327 31.9085 67.934 31.9078C67.9489 31.8997 67.9928 31.8759 68.0599 31.8564C68.0601 31.8564 68.0603 31.8563 68.0605 31.8563C68.1055 31.8432 68.1308 31.8359 68.1418 31.8141C68.1446 31.8086 68.1473 31.8041 68.1501 31.8003C68.1561 31.7922 68.1619 31.7874 68.1673 31.7836C68.1688 31.7826 68.1702 31.7816 68.1716 31.7807C68.1775 31.7767 68.1821 31.7736 68.1852 31.7675C68.1947 31.7489 68.1964 31.7253 68.1925 31.6849C68.1892 31.6507 68.1943 31.6269 68.1987 31.6061C68.1987 31.6061 68.1987 31.6061 68.1987 31.606C68.1993 31.6036 68.1998 31.6011 68.2003 31.5987ZM69.0619 31.3168C69.0651 31.3157 69.0735 31.3267 69.0808 31.3413C69.088 31.3559 69.0914 31.3686 69.0882 31.3696C69.0808 31.3721 69.0733 31.3745 69.0658 31.3769C69.0627 31.3779 69.0543 31.367 69.047 31.3524C69.0398 31.3378 69.0364 31.3251 69.0395 31.3241C69.047 31.3216 69.0545 31.3192 69.0619 31.3168ZM68.0566 31.3419C68.058 31.3376 68.0655 31.3454 68.0732 31.3594C68.081 31.3733 68.0862 31.3882 68.0849 31.3925C68.0841 31.3949 68.0831 31.3989 68.0817 31.4044C68.0744 31.4324 68.0576 31.4972 68.0267 31.5536C68.014 31.5768 67.999 31.5985 67.9812 31.6158C67.976 31.6208 67.9715 31.6254 67.9672 31.6298C67.9488 31.6488 67.9497 31.6953 67.9063 31.7151C67.8478 31.7418 67.7862 31.7622 67.7244 31.7822C67.6047 31.8207 67.4842 31.8574 67.3834 31.9334C67.3737 31.9408 67.3642 31.9485 67.3548 31.9566C67.3097 31.9957 67.2592 32.0235 67.207 32.0485C67.1634 32.0694 67.0708 32.0818 67.0508 32.0884C67.0477 32.0894 67.0392 32.0784 67.032 32.0638C67.0247 32.0492 67.0214 32.0365 67.0245 32.0355C67.0444 32.029 67.1367 32.0166 67.1801 31.9959C67.2322 31.9709 67.2827 31.9432 67.3276 31.9041C67.3372 31.8958 67.3468 31.8877 67.3566 31.8798C67.4551 31.7994 67.5627 31.7366 67.6737 31.6808C67.7311 31.6519 67.7895 31.6248 67.848 31.5981C67.891 31.5785 67.9216 31.5965 67.9399 31.5776C67.9442 31.5732 67.9487 31.5685 67.9539 31.5635C67.972 31.546 67.9872 31.5237 68 31.5001C68.0298 31.445 68.046 31.3822 68.0533 31.3543C68.0548 31.3486 68.0559 31.3444 68.0566 31.3419ZM68.2034 31.2962C68.2265 31.2808 68.2606 31.2679 68.2947 31.2565C68.3058 31.2528 68.3168 31.2492 68.3274 31.2458C68.3487 31.239 68.3685 31.2327 68.3838 31.2266C68.4075 31.2171 68.4281 31.2226 68.4486 31.228C68.4488 31.2281 68.449 31.2281 68.4492 31.2282C68.4697 31.2336 68.4901 31.2389 68.5142 31.2293C68.5385 31.2196 68.5664 31.1948 68.5946 31.1699C68.5946 31.1699 68.5947 31.1699 68.5947 31.1699C68.6121 31.1544 68.6246 31.1284 68.6375 31.1087C68.6452 31.0967 68.6532 31.0871 68.6625 31.0833C68.7487 31.0491 68.8178 31.0599 68.8578 31.0755C68.9278 31.1028 68.951 31.0214 69.0285 31.0614C69.0406 31.0728 69.0521 31.1173 69.037 31.1104C69.0365 31.1102 69.036 31.1101 69.0355 31.1099C69.0308 31.1085 69.0267 31.1075 69.0218 31.1074C69.0152 31.1087 69.0109 31.1107 69.0069 31.1126C68.9966 31.1175 68.9206 31.1435 68.8816 31.1282C68.8436 31.1134 68.8075 31.1659 68.7207 31.2004C68.7115 31.204 68.6991 31.2045 68.6856 31.205C68.6637 31.2058 68.6392 31.2069 68.6218 31.2223C68.6217 31.2224 68.6216 31.2225 68.6215 31.2225C68.5936 31.2473 68.5653 31.2723 68.5407 31.2821C68.5157 31.2921 68.4944 31.2866 68.4736 31.2811C68.4734 31.281 68.4732 31.2809 68.473 31.2809C68.4527 31.2755 68.433 31.2703 68.4102 31.2794C68.3946 31.2857 68.3746 31.2921 68.3532 31.299C68.3427 31.3023 68.332 31.3058 68.3212 31.3094C68.2872 31.3207 68.2533 31.3335 68.2302 31.3487C68.2275 31.3505 68.2193 31.3402 68.2118 31.3257C68.2044 31.3112 68.2006 31.298 68.2034 31.2962ZM68.0394 30.9666C68.0594 30.9331 68.0833 30.9073 68.1106 30.8883C68.1682 30.8481 68.2408 30.8381 68.3231 30.8494C68.3476 30.8396 68.3826 30.8273 68.4175 30.815C68.4179 30.8149 68.4183 30.8147 68.4187 30.8146C68.4398 30.8072 68.4608 30.7998 68.4795 30.7929C68.4914 30.7886 68.5024 30.7845 68.5118 30.7808C68.598 30.7465 68.6539 30.7305 68.6939 30.7461C68.7312 30.7606 68.7379 30.7574 68.7479 30.7526C68.7482 30.7525 68.7484 30.7524 68.7487 30.7523C68.7487 30.7522 68.7487 30.7522 68.7487 30.7521C68.7487 30.7513 68.7488 30.7507 68.7489 30.7505C68.749 30.75 68.7492 30.7498 68.7492 30.7497C68.7494 30.7494 68.7496 30.7494 68.7496 30.7493C68.7499 30.7491 68.7502 30.749 68.7504 30.7489C68.7523 30.7483 68.7586 30.7472 68.764 30.7472C68.7696 30.7471 68.7742 30.7484 68.7792 30.7499C68.7797 30.7501 68.7802 30.7502 68.7807 30.7504C68.7852 30.7517 68.79 30.7532 68.7965 30.7542C68.8004 30.7548 68.8092 30.7672 68.816 30.7818C68.8229 30.7964 68.8253 30.8077 68.8213 30.8071C68.8146 30.8061 68.8094 30.8045 68.8049 30.8032C68.8044 30.803 68.8039 30.8028 68.8034 30.8027C68.7987 30.8013 68.7946 30.8002 68.7896 30.8002C68.7831 30.8014 68.7788 30.8035 68.7748 30.8053C68.7645 30.8103 68.7567 30.8139 68.7176 30.7987C68.6796 30.7839 68.625 30.7991 68.5382 30.8336C68.5288 30.8373 68.5178 30.8414 68.506 30.8458C68.4872 30.8526 68.4662 30.86 68.4451 30.8674C68.4447 30.8676 68.4443 30.8677 68.4439 30.8679C68.4089 30.8802 68.374 30.8924 68.3495 30.9022C68.2846 30.9281 68.2285 30.9694 68.1642 30.9955C68.134 31.0078 68.1019 31.0168 68.0663 31.0192C68.0504 31.0298 68.0353 31.0383 68.0213 31.0463C67.9802 31.0696 67.9487 31.0875 67.9338 31.135C67.9306 31.1455 67.9158 31.1603 67.8939 31.1806C67.8875 31.1865 67.8804 31.1929 67.8727 31.1999C67.8677 31.2044 67.8624 31.2092 67.857 31.2142C67.8419 31.228 67.8251 31.2435 67.8071 31.2609C67.802 31.2659 67.7975 31.2706 67.7932 31.275C67.7748 31.294 67.7603 31.309 67.7168 31.3288C67.6677 31.3512 67.5839 31.3791 67.5302 31.3939C67.5255 31.3952 67.521 31.3964 67.5168 31.3975C67.4907 31.4042 67.4751 31.4062 67.4637 31.407C67.4606 31.4073 67.4578 31.4074 67.4552 31.4075C67.4484 31.4078 67.4432 31.4081 67.437 31.4097C67.392 31.4209 67.3668 31.4413 67.3268 31.4774C67.3243 31.4797 67.3162 31.4698 67.3087 31.4553C67.3011 31.4408 67.2971 31.4273 67.2996 31.425C67.3396 31.3888 67.3652 31.3682 67.4108 31.3567C67.4173 31.3551 67.4229 31.3548 67.4298 31.3545C67.4323 31.3544 67.4351 31.3542 67.4381 31.354C67.4492 31.3532 67.4647 31.3513 67.4907 31.3446C67.4948 31.3435 67.4992 31.3423 67.5038 31.3411C67.5573 31.3263 67.6412 31.2984 67.6903 31.276C67.7333 31.2564 67.7475 31.2417 67.7658 31.2228C67.7702 31.2184 67.7747 31.2137 67.7799 31.2086C67.7982 31.1909 67.8152 31.1751 67.8304 31.1612C67.8357 31.1564 67.8407 31.1518 67.8455 31.1474C67.8532 31.1405 67.8603 31.1341 67.8667 31.1282C67.889 31.1075 67.9028 31.0934 67.9056 31.0844C67.921 31.0352 67.9539 31.0165 67.9954 30.993C68.0092 30.9852 68.024 30.9769 68.0394 30.9666ZM67.1536 31.5493C67.1561 31.5471 67.1643 31.5571 67.1718 31.5716C67.1793 31.586 67.1833 31.5995 67.1807 31.6017C67.1673 31.6134 67.1579 31.6222 67.1506 31.6291C67.1369 31.6418 67.1304 31.648 67.1186 31.6533C67.0882 31.6672 67.0591 31.6811 67.0329 31.6937C66.9894 31.7145 66.9539 31.7315 66.9339 31.7381C66.9308 31.7391 66.9223 31.7281 66.9151 31.7135C66.9078 31.6989 66.9045 31.6862 66.9076 31.6852C66.9275 31.6787 66.9627 31.6619 67.006 31.6411C67.0322 31.6285 67.0614 31.6145 67.092 31.6005C67.1034 31.5953 67.1097 31.5895 67.123 31.5771C67.1303 31.5702 67.1398 31.5613 67.1536 31.5493Z" fill="black"/>
<defs>
<filter id="filter0_d_40_45" x="8.36816" y="16.279" width="61.9609" height="52.5921" filterUnits="userSpaceOnUse" color-interpolation-filters="sRGB">
<feFlood flood-opacity="0" result="BackgroundImageFix"/>
<feColorMatrix in="SourceAlpha" type="matrix" values="0 0 0 0 0 0 0 0 0 0 0 0 0 0 0 0 0 0 127 0" result="hardAlpha"/>
<feOffset dy="4"/>
<feGaussianBlur stdDeviation="2"/>
<feComposite in2="hardAlpha" operator="out"/>
<feColorMatrix type="matrix" values="0 0 0 0 0 0 0 0 0 0 0 0 0 0 0 0 0 0 0.25 0"/>
<feBlend mode="normal" in2="BackgroundImageFix" result="effect1_dropShadow_40_45"/>
<feBlend mode="normal" in="SourceGraphic" in2="effect1_dropShadow_40_45" result="shape"/>
</filter>
<filter id="filter1_g_40_45" x="35.9995" y="35" width="23" height="19" filterUnits="userSpaceOnUse" color-interpolation-filters="sRGB">
<feFlood flood-opacity="0" result="BackgroundImageFix"/>
<feBlend mode="normal" in="SourceGraphic" in2="BackgroundImageFix" result="shape"/>
<feTurbulence type="fractalNoise" baseFrequency="0.25 0.25" numOctaves="3" seed="8128" />
<feDisplacementMap in="shape" scale="8" xChannelSelector="R" yChannelSelector="G" result="displacedImage" width="100%" height="100%" />
<feMerge result="effect1_texture_40_45">
<feMergeNode in="displacedImage"/>
</feMerge>
</filter>
<filter id="filter2_g_40_45" x="23.9995" y="41" width="23" height="20" filterUnits="userSpaceOnUse" color-interpolation-filters="sRGB">
<feFlood flood-opacity="0" result="BackgroundImageFix"/>
<feBlend mode="normal" in="SourceGraphic" in2="BackgroundImageFix" result="shape"/>
<feTurbulence type="fractalNoise" baseFrequency="0.25 0.25" numOctaves="3" seed="8128" />
<feDisplacementMap in="shape" scale="8" xChannelSelector="R" yChannelSelector="G" result="displacedImage" width="100%" height="100%" />
<feMerge result="effect1_texture_40_45">
<feMergeNode in="displacedImage"/>
</feMerge>
</filter>
<filter id="filter3_g_40_45" x="8.99951" y="47" width="23" height="19" filterUnits="userSpaceOnUse" color-interpolation-filters="sRGB">
<feFlood flood-opacity="0" result="BackgroundImageFix"/>
<feBlend mode="normal" in="SourceGraphic" in2="BackgroundImageFix" result="shape"/>
<feTurbulence type="fractalNoise" baseFrequency="0.25 0.25" numOctaves="3" seed="8128" />
<feDisplacementMap in="shape" scale="8" xChannelSelector="R" yChannelSelector="G" result="displacedImage" width="100%" height="100%" />
<feMerge result="effect1_texture_40_45">
<feMergeNode in="displacedImage"/>
</feMerge>
</filter>
<filter id="filter4_g_40_45" x="46.9995" y="28" width="23" height="20" filterUnits="userSpaceOnUse" color-interpolation-filters="sRGB">
<feFlood flood-opacity="0" result="BackgroundImageFix"/>
<feBlend mode="normal" in="SourceGraphic" in2="BackgroundImageFix" result="shape"/>
<feTurbulence type="fractalNoise" baseFrequency="0.25 0.25" numOctaves="3" seed="8128" />
<feDisplacementMap in="shape" scale="8" xChannelSelector="R" yChannelSelector="G" result="displacedImage" width="100%" height="100%" />
<feMerge result="effect1_texture_40_45">
<feMergeNode in="displacedImage"/>
</feMerge>
</filter>
</defs>
</svg>
